<?xml version="1.0" standalone="no"?>
<!DOCTYPE svg PUBLIC "-//W3C//DTD SVG 20010904//EN"
 "http://www.w3.org/TR/2001/REC-SVG-20010904/DTD/svg10.dtd">
<svg version="1.0" xmlns="http://www.w3.org/2000/svg"
 width="1035.000000pt" height="1035.000000pt" viewBox="0 0 1035.000000 1035.000000"
 preserveAspectRatio="xMidYMid meet">
<metadata>
Created by potrace 1.14, written by Peter Selinger 2001-2017
</metadata>
<g transform="translate(0.000000,1035.000000) scale(0.100000,-0.100000)"
fill="#000000" stroke="none">
<path d="M8837 7304 c-1 -1 -60 -5 -132 -8 -132 -7 -217 -13 -290 -21 -46 -5
-281 -18 -337 -19 -45 -1 -58 -27 -22 -47 30 -16 63 -102 74 -194 4 -38 8
-637 8 -1330 0 -1034 -2 -1273 -14 -1333 -16 -83 -36 -129 -69 -157 -16 -14
-21 -25 -16 -34 7 -11 57 -14 256 -13 136 0 251 4 256 9 5 5 -5 24 -25 46 -18
20 -39 56 -45 79 -6 24 -15 54 -18 68 -4 14 -9 355 -10 758 l-4 732 253 0 253
0 159 -278 c170 -296 273 -475 431 -747 197 -338 291 -549 281 -628 -2 -20 -1
-37 2 -37 10 -1 463 -1 490 -1 33 1 27 32 -11 56 -60 38 -159 192 -487 760
-89 154 -172 298 -185 320 -12 22 -92 160 -177 307 l-155 266 31 6 c68 13 82
16 162 36 348 87 547 271 594 549 13 80 8 218 -11 298 -43 181 -181 335 -379
425 -109 50 -298 98 -435 112 -159 16 -203 18 -309 20 -65 1 -118 1 -119 0z
m348 -63 c311 -70 505 -228 577 -471 26 -87 33 -262 13 -354 -61 -288 -307
-477 -695 -532 -58 -8 -596 -14 -617 -6 -10 3 -12 158 -12 683 0 373 3 680 7
680 22 4 56 8 137 14 50 4 91 9 93 10 2 2 92 2 200 1 162 -3 215 -7 297 -25z"/>
<path d="M1035 7293 c-266 -40 -426 -110 -571 -249 -251 -242 -302 -639 -120
-948 37 -64 157 -196 231 -256 67 -54 381 -230 411 -230 23 0 343 -134 424
-178 254 -136 416 -284 503 -457 83 -166 87 -355 9 -498 -121 -224 -500 -374
-793 -313 -312 66 -666 416 -923 915 -48 94 -72 131 -83 129 -17 -3 -26 -29
-84 -247 -42 -161 -43 -149 24 -241 190 -259 526 -478 868 -565 132 -34 182
-39 349 -39 113 0 164 5 230 22 390 96 638 376 653 736 18 408 -254 728 -798
940 -55 22 -144 56 -198 77 -53 21 -136 59 -185 85 -375 200 -559 435 -564
720 -2 142 45 248 154 349 156 145 437 232 654 203 140 -19 312 -111 422 -226
136 -143 258 -355 329 -574 32 -99 41 -118 58 -118 18 0 27 23 73 195 l53 196
-32 52 c-107 174 -258 320 -409 394 -119 58 -179 77 -337 107 -75 15 -297 26
-348 19z"/>
<path d="M3696 7215 c7 -22 25 -76 41 -120 l29 -80 -97 -285 c-89 -261 -173
-507 -184 -537 -3 -9 -20 -3 -54 18 -27 17 -54 30 -59 28 -6 -2 10 -38 34 -80
l44 -75 -40 -115 c-22 -63 -43 -120 -45 -128 -6 -16 -42 27 -95 113 -19 32
-48 79 -65 104 -36 57 -176 198 -237 240 -56 39 -196 109 -228 116 -14 2 -37
9 -52 15 -26 10 -58 15 -173 28 -133 15 -181 4 -113 -26 55 -24 121 -73 163
-121 71 -81 143 -148 202 -188 48 -32 219 -120 298 -152 146 -59 265 -129 265
-156 0 -18 0 -18 -70 10 -33 14 -60 22 -60 19 0 -3 -6 -1 -13 5 -15 12 -326
118 -372 126 -55 10 -89 29 -197 107 -142 105 -215 137 -403 178 -139 31 -261
24 -398 -22 -59 -20 -113 -40 -120 -44 -7 -4 -19 -8 -27 -10 -25 -3 -110 -46
-110 -55 0 -7 19 -14 61 -22 43 -9 88 -24 219 -77 231 -93 387 -122 530 -100
36 5 85 13 110 16 24 4 47 8 50 10 5 3 95 16 144 20 51 4 476 -126 476 -146 0
-5 -15 -9 -32 -10 -18 -1 -46 -3 -63 -5 -63 -8 -96 -5 -144 11 -62 20 -230 24
-313 6 -68 -15 -246 -86 -303 -122 -22 -14 -56 -31 -75 -39 -81 -32 -102 -66
-50 -81 140 -42 170 -47 250 -47 95 0 265 32 291 54 8 8 20 14 25 14 10 0 105
48 142 71 52 33 15 25 -70 -16 -119 -55 -176 -74 -258 -84 -72 -9 -237 -7
-247 3 -11 11 2 15 72 20 95 7 134 13 218 36 40 11 87 22 106 25 19 3 53 15
77 25 104 47 130 58 154 64 l25 7 -24 -21 c-42 -36 -15 -32 29 5 23 19 54 36
68 37 15 0 38 2 52 4 127 13 175 11 216 -7 l44 -18 -21 -58 c-55 -155 -45
-140 -95 -147 -44 -6 -134 -47 -162 -73 -7 -7 -16 -13 -20 -13 -11 0 -96 -82
-120 -117 l-23 -33 33 -20 c18 -11 41 -20 51 -20 10 0 26 -4 35 -9 9 -5 44
-12 77 -16 33 -3 61 -8 63 -9 3 -3 -16 -60 -88 -270 -134 -394 -172 -489 -240
-606 -52 -88 -123 -167 -159 -175 -27 -6 -35 -24 -18 -41 4 -4 87 -7 184 -7
171 1 178 2 181 21 2 15 -3 21 -20 24 -12 2 -33 18 -45 37 -30 44 -30 124 -3
241 20 83 247 769 259 782 3 3 26 8 51 11 89 10 187 47 269 100 36 24 81 52
99 62 17 11 32 22 32 26 0 4 15 17 34 28 55 34 183 23 216 -18 7 -9 94 -65 98
-63 1 1 11 -6 21 -15 32 -29 50 -43 55 -43 3 0 43 -26 89 -59 92 -66 144 -118
205 -208 164 -241 314 -733 269 -880 -6 -18 -8 -36 -5 -39 5 -5 269 -8 460 -5
66 1 69 10 17 64 -64 66 -143 251 -295 693 -53 154 -147 428 -209 609 -62 182
-163 476 -225 655 -61 179 -120 350 -130 380 -10 30 -64 188 -120 350 -56 162
-106 309 -111 325 l-9 30 -168 0 -169 0 13 -40z m127 -365 c14 -41 71 -208
127 -370 56 -162 130 -378 165 -480 35 -102 113 -331 174 -509 61 -178 111
-325 111 -327 0 -2 -4 -4 -10 -4 -12 0 -220 206 -220 218 0 4 -9 18 -20 29
-37 41 -108 159 -173 290 -74 151 -122 227 -169 269 -35 31 -184 134 -193 134
-4 0 -22 12 -41 26 -19 15 -34 22 -34 18 0 -5 -5 -2 -10 7 -7 12 13 82 74 260
46 134 86 251 89 259 3 8 25 73 48 143 23 70 45 124 49 120 4 -4 19 -42 33
-83z m-1170 -436 c76 -17 212 -77 287 -127 57 -37 220 -202 254 -256 31 -48
34 -66 9 -52 -29 15 -113 103 -113 117 0 12 -106 104 -119 104 -5 0 -11 4 -13
8 -7 18 -158 113 -234 147 -186 85 -185 84 -71 59z m-8 -93 c22 -14 54 -39 70
-54 27 -26 122 -96 164 -122 9 -5 18 -12 21 -15 3 -3 31 -27 63 -54 32 -26 56
-50 54 -53 -8 -7 -214 104 -270 146 -60 45 -187 174 -187 190 0 13 19 5 85
-38z m115 -8 c47 -25 87 -49 88 -54 2 -5 8 -9 14 -9 16 0 153 -107 191 -149
35 -39 73 -101 62 -101 -10 0 -90 54 -140 95 -27 22 -86 67 -130 100 -44 32
-98 75 -121 94 -22 20 -53 46 -70 59 -28 22 -28 22 -4 16 14 -3 63 -26 110
-51z m-565 -72 c22 -5 53 -12 68 -15 92 -16 202 -67 295 -134 103 -76 86 -75
-113 7 -54 23 -108 43 -120 46 -11 2 -39 9 -63 15 -24 6 -62 13 -85 16 -56 8
-335 7 -417 0 -63 -7 -64 -6 -36 9 43 23 142 54 195 61 25 3 48 8 51 11 8 8
180 -4 225 -16z m-5 -94 c14 -2 52 -10 85 -17 33 -8 62 -14 65 -15 24 -4 150
-58 150 -64 0 -5 -39 0 -87 9 -49 10 -117 21 -153 24 -36 3 -76 8 -90 11 -14
3 -45 7 -70 9 -25 3 -65 7 -90 10 -43 5 -147 17 -182 20 -33 4 -27 12 9 14 21
2 38 4 40 6 4 4 295 -2 323 -7z m-88 -140 c92 -27 176 -41 246 -39 42 1 51 -9
14 -15 -128 -22 -334 17 -504 96 -37 17 -79 33 -93 37 -14 3 -27 9 -29 13 -5
8 223 -50 366 -92z m-64 79 c20 -3 60 -8 87 -11 78 -9 127 -15 165 -21 19 -3
49 -7 67 -9 17 -2 49 -8 70 -14 21 -6 61 -13 88 -17 60 -8 78 -16 47 -24 -43
-10 -329 5 -345 18 -11 9 -17 10 -22 2 -4 -7 -11 -8 -18 -1 -7 5 -61 23 -122
41 -126 37 -161 53 -97 45 23 -3 59 -7 80 -9z m1647 -59 c32 -20 119 -91 128
-104 4 -7 14 -18 21 -25 14 -15 46 -72 46 -83 0 -4 -33 25 -72 63 -40 39 -102
98 -138 132 -61 57 -57 62 15 17z m-141 -111 c71 -124 129 -178 307 -286 190
-116 195 -119 230 -176 l29 -45 -42 26 c-24 15 -77 42 -118 61 -243 111 -550
282 -550 308 0 6 16 60 37 120 29 85 39 105 47 92 6 -8 33 -54 60 -100z m66
41 c44 -42 191 -203 220 -241 31 -41 -33 9 -109 85 -76 75 -171 181 -171 190
0 18 17 8 60 -34z m157 -107 c90 -105 110 -142 31 -58 -102 108 -134 148 -120
148 6 0 46 -41 89 -90z m-71 -55 c54 -52 95 -95 90 -95 -29 0 -143 101 -176
157 -10 18 -18 33 -15 33 2 0 48 -43 101 -95z m174 -19 c0 -5 -13 6 -30 24
-16 18 -30 36 -30 39 0 2 14 -8 30 -24 17 -16 30 -33 30 -39z m-974 32 c14
-15 8 -17 -116 -34 -19 -2 -48 -9 -65 -14 -16 -5 -41 -11 -55 -14 -14 -2 -43
-9 -65 -14 -22 -6 -51 -13 -65 -16 -50 -10 -98 -23 -107 -29 -5 -3 -23 -9 -39
-11 -16 -3 -38 -8 -49 -10 -11 -3 -36 -8 -55 -12 -35 -7 -35 -7 -15 13 20 19
165 96 165 87 0 -2 19 5 41 17 67 33 153 47 291 46 69 -1 130 -5 134 -9z m-36
-53 c0 -14 -140 -62 -227 -80 -10 -1 -45 -10 -78 -19 -57 -14 -205 -31 -205
-22 0 7 115 45 180 60 36 8 85 20 110 26 136 35 220 48 220 35z m1040 -10 c11
-13 10 -14 -4 -9 -9 3 -16 10 -16 15 0 13 6 11 20 -6z m-376 -71 c206 -103
227 -117 152 -103 -25 5 -74 6 -108 3 -75 -7 -239 -7 -245 0 -8 8 49 166 60
166 6 0 70 -30 141 -66z m424 -9 c-3 -3 -9 2 -12 12 -6 14 -5 15 5 6 7 -7 10
-15 7 -18z m-564 -126 c2 -2 -18 -14 -44 -25 l-47 -22 5 22 c3 11 10 24 16 28
10 7 63 4 70 -3z m-125 -7 c0 -4 -4 -16 -8 -26 -7 -18 -14 -21 -71 -31 -33 -5
-117 -33 -155 -52 l-30 -15 21 20 c26 25 99 72 142 92 35 16 103 24 101 12z
m461 -2 c20 -6 14 -8 -25 -8 -27 0 -59 3 -70 8 -27 11 59 11 95 0z m-137 -19
c8 -8 -12 -11 -81 -11 -51 0 -92 2 -92 5 0 23 151 28 173 6z m-135 -36 c-3 -3
-25 -8 -49 -11 -24 -4 -55 -10 -69 -15 l-25 -9 24 20 c16 14 38 20 74 20 28 0
48 -2 45 -5z m-215 -25 c-3 -11 -10 -20 -17 -20 -39 -2 -100 -15 -160 -36 -38
-13 -71 -22 -73 -21 -8 8 118 62 182 78 39 10 71 18 72 18 0 1 -1 -8 -4 -19z
m307 -15 c-36 -21 -123 -45 -212 -60 -65 -10 -78 -10 -78 1 0 35 120 68 255
72 57 2 59 1 35 -13z m-330 -55 c-14 -26 -17 -27 -85 -35 -70 -9 -107 -8 -115
3 -3 4 -4 6 -2 6 2 -1 27 7 55 17 29 11 70 22 92 25 22 4 42 8 44 10 11 10 20
-10 11 -26z m302 1 c-52 -45 -292 -121 -292 -92 0 28 20 59 37 57 10 -2 35 1
55 6 21 4 55 11 75 14 20 3 61 14 92 24 31 10 58 18 61 19 3 0 -10 -13 -28
-28z m618 -37 c0 -3 -13 4 -30 16 -16 12 -30 24 -30 26 0 3 14 -4 30 -16 17
-12 30 -24 30 -26z m-946 -42 c-4 -12 -14 -22 -23 -23 -63 -4 -191 18 -191 33
0 4 19 8 43 8 50 1 150 11 156 16 10 10 20 -13 15 -34z"/>
<path d="M5636 7245 c-2 -5 10 -24 26 -42 19 -19 38 -58 51 -100 20 -67 20
-87 22 -1362 2 -1348 0 -1413 -40 -1491 -10 -19 -27 -43 -38 -53 -37 -32 -30
-47 21 -48 53 -1 450 0 470 0 21 1 13 25 -17 54 -35 32 -59 99 -68 188 -4 35
-7 384 -7 774 l-1 710 65 -1 c81 -1 288 -13 315 -18 11 -2 41 -6 66 -10 135
-20 239 -50 334 -96 45 -22 87 -40 95 -40 13 0 15 30 15 185 1 176 0 185 -18
185 -11 0 -35 -9 -53 -21 -107 -66 -324 -118 -564 -134 -210 -14 -240 -14
-248 3 -5 10 -8 303 -8 652 l1 635 270 0 c245 0 309 -3 385 -20 14 -3 45 -8
70 -11 174 -24 471 -140 661 -258 40 -25 84 -46 96 -46 l22 0 -2 188 -2 187
-957 0 c-631 0 -959 -3 -962 -10z"/>
<path d="M1617 3523 c-22 -6 -47 -54 -47 -92 0 -25 -5 -30 -27 -34 l-28 -4 27
-2 26 -1 -3 -92 c-3 -115 -1 -106 -27 -111 -13 -2 6 -4 42 -4 36 -1 58 1 49 4
-22 6 -29 33 -29 125 l0 77 33 4 32 4 -32 1 c-31 2 -33 4 -33 42 0 28 7 47 22
62 l21 21 22 -26 c22 -29 45 -35 45 -13 0 27 -53 50 -93 39z"/>
<path d="M2393 3508 c15 -11 17 -34 18 -157 1 -128 -1 -146 -17 -158 -15 -11
-11 -13 37 -12 30 0 47 3 39 6 -8 3 -17 10 -20 14 -3 4 -5 78 -5 163 l1 156
-35 0 c-30 0 -33 -2 -18 -12z"/>
<path d="M8505 3506 c16 -12 18 -28 18 -157 -1 -125 -4 -145 -19 -156 -15 -11
-10 -13 37 -12 30 1 47 3 38 6 -23 6 -25 19 -24 186 l0 147 -34 0 c-32 0 -33
-1 -16 -14z"/>
<path d="M9645 3513 c11 -3 23 -9 26 -14 10 -16 9 -281 -2 -300 -9 -17 -6 -19
38 -18 40 0 44 2 25 10 -22 8 -24 14 -21 77 2 37 2 109 1 160 l-2 92 -42 -1
c-24 -1 -34 -4 -23 -6z"/>
<path d="M1732 3498 c-18 -18 -15 -35 8 -41 28 -7 45 17 25 37 -20 19 -18 19
-33 4z"/>
<path d="M5262 3448 c-1 -9 -14 -26 -28 -37 -20 -15 -22 -21 -10 -21 14 0 16
-14 16 -105 0 -109 0 -110 45 -105 35 4 54 19 20 17 l-30 -2 -3 97 -3 97 33 4
33 4 -32 1 c-28 2 -32 6 -36 35 -2 17 -5 24 -5 15z"/>
<path d="M8790 3436 c-5 -13 -17 -29 -27 -35 -14 -8 -15 -10 -2 -11 13 0 15
-16 14 -96 -1 -65 3 -100 11 -109 14 -13 60 -9 70 7 4 6 -2 8 -14 4 -15 -5
-23 -2 -29 11 -7 15 -9 113 -4 170 1 6 13 14 29 16 l27 4 -27 2 c-27 1 -32 8
-29 44 3 25 -8 21 -19 -7z"/>
<path d="M3966 3441 c-4 -5 -3 -16 0 -24 8 -21 -7 -27 -48 -18 -53 12 -96 -11
-104 -56 -4 -20 -2 -44 5 -56 9 -18 9 -30 -3 -59 -14 -32 -14 -37 0 -49 13
-10 12 -15 -6 -35 -45 -47 -6 -94 78 -94 65 0 107 27 116 73 7 37 -20 55 -94
63 -72 6 -84 13 -78 40 3 14 12 18 31 17 15 -1 27 2 27 8 0 5 -7 9 -15 9 -33
0 -43 103 -12 122 15 10 49 10 63 0 30 -20 24 -107 -7 -117 -11 -4 -19 -10
-19 -15 0 -13 31 0 58 23 23 21 29 61 13 86 -6 10 -3 23 11 42 11 15 17 32 14
38 -9 13 -23 14 -30 2z m-13 -293 c24 -12 21 -54 -5 -72 -44 -31 -128 -11
-128 31 0 38 20 54 68 52 26 -1 55 -6 65 -11z"/>
<path d="M757 3399 c-39 -11 -54 -25 -67 -65 -23 -69 10 -139 72 -153 97 -22
163 86 108 177 -11 17 -21 32 -22 32 -2 0 -17 4 -33 8 -17 5 -43 5 -58 1z m87
-38 c13 -20 13 -98 1 -127 -16 -38 -38 -53 -71 -46 -30 5 -39 17 -52 65 -23
85 29 162 89 131 15 -7 30 -18 33 -23z"/>
<path d="M968 3402 c-26 -3 -27 -5 -14 -25 8 -13 14 -46 13 -77 -1 -81 8 -106
43 -119 37 -12 73 1 88 33 10 20 11 20 13 1 1 -11 1 -24 0 -29 -2 -11 60 1 73
14 5 5 1 7 -13 3 -24 -6 -22 -12 -26 112 -2 44 -3 83 -4 86 0 3 -11 5 -23 3
-13 -1 -30 -3 -38 -4 -9 -1 -6 -5 8 -10 19 -8 22 -16 22 -70 0 -72 -20 -117
-56 -126 -40 -10 -49 9 -54 114 l-5 97 -27 -3z"/>
<path d="M1245 3399 c-16 -3 -22 -7 -13 -8 22 -1 31 -46 25 -130 -3 -39 -9
-66 -18 -72 -9 -6 6 -9 41 -8 44 0 50 2 32 9 -22 9 -22 14 -20 104 2 54 -1 99
-7 104 -6 5 -23 5 -40 1z"/>
<path d="M1331 3397 c-14 -6 -27 -19 -29 -27 -4 -13 -3 -13 10 -2 10 7 26 10
41 7 28 -7 47 12 26 26 -18 11 -19 11 -48 -4z"/>
<path d="M1706 3400 c-19 -6 -19 -7 2 -12 22 -6 23 -9 24 -93 1 -83 -2 -104
-19 -108 -10 -3 7 -5 37 -5 30 0 47 2 38 5 -19 5 -20 9 -21 136 0 42 -3 77 -6
78 -3 0 -13 2 -21 3 -8 2 -24 0 -34 -4z"/>
<path d="M1860 3399 c-14 -4 -18 -7 -9 -8 24 -1 29 -22 29 -112 0 -73 -2 -80
-22 -89 -17 -7 -8 -9 37 -8 33 0 52 2 43 5 -20 5 -20 5 -22 90 0 33 2 59 7 56
4 -2 7 2 7 10 0 8 9 22 20 32 23 21 69 13 71 -13 5 -58 6 -138 2 -153 -3 -10
-12 -20 -22 -22 -9 -3 6 -5 34 -6 38 -1 46 2 37 11 -7 7 -12 42 -12 89 0 60
-4 82 -18 99 -27 33 -80 30 -110 -7 -13 -16 -22 -21 -21 -13 5 47 -3 53 -51
39z"/>
<path d="M2183 3395 c-18 -8 -33 -21 -33 -30 0 -23 20 -18 47 11 22 24 26 25
46 11 25 -16 37 -76 15 -78 -39 -2 -76 -12 -96 -25 -18 -12 -23 -23 -20 -52 5
-59 60 -75 106 -32 21 20 34 17 25 -6 -6 -16 20 -18 52 -4 17 7 17 9 3 9 -21
1 -20 -4 -22 89 -2 57 -6 76 -21 91 -28 26 -65 32 -102 16z m87 -115 c0 -56
-54 -106 -86 -79 -25 21 -12 62 27 81 44 23 59 23 59 -2z"/>
<path d="M2689 3399 c-33 -12 -46 -49 -18 -49 10 0 19 7 19 15 0 21 31 34 58
24 15 -6 22 -17 22 -34 0 -14 1 -28 2 -32 1 -5 -19 -12 -45 -18 -56 -12 -87
-36 -87 -68 0 -63 75 -82 118 -30 12 15 20 21 17 13 -9 -26 9 -42 39 -34 23 5
25 8 11 18 -12 8 -16 30 -17 83 -1 74 -19 113 -53 113 -7 0 -19 2 -27 4 -7 3
-25 0 -39 -5z m81 -128 c0 -35 -34 -81 -60 -81 -50 0 -42 80 9 99 43 16 51 13
51 -18z"/>
<path d="M2900 3399 c-14 -4 -18 -7 -9 -8 24 -1 29 -22 29 -111 0 -65 -3 -81
-17 -89 -14 -8 -7 -10 32 -11 35 0 45 3 35 10 -11 7 -14 32 -15 109 0 108 -4
115 -55 100z"/>
<path d="M2990 3397 c-14 -7 -26 -21 -28 -32 -3 -19 -2 -19 8 -2 9 14 19 16
46 11 26 -5 34 -3 34 9 0 8 -7 18 -16 21 -19 7 -14 8 -44 -7z"/>
<path d="M3097 3402 c-17 -3 -17 -5 -2 -16 12 -9 16 -30 17 -95 1 -71 -2 -86
-18 -98 -16 -11 -11 -13 37 -12 30 1 46 3 37 6 -11 3 -18 15 -19 31 0 15 -2
38 -3 52 -4 32 13 93 28 102 6 5 23 5 39 2 20 -4 27 -2 27 9 0 29 -63 30 -74
1 -7 -19 -24 -18 -22 2 1 17 -16 23 -47 16z"/>
<path d="M3350 3400 c0 -6 4 -9 9 -5 11 6 41 -21 42 -38 0 -7 2 -19 4 -28 2
-13 -8 -18 -44 -23 -57 -8 -91 -36 -91 -76 0 -55 84 -76 113 -29 7 11 15 19
20 19 4 0 6 -4 3 -8 -11 -18 12 -35 39 -28 24 6 26 8 11 19 -12 9 -17 31 -19
82 -3 73 -18 115 -42 115 -7 0 -20 3 -29 6 -9 3 -16 1 -16 -6z m52 -130 c-8
-59 -70 -102 -91 -62 -15 29 -1 63 33 78 43 19 62 14 58 -16z"/>
<path d="M3530 3400 c-25 -6 -25 -6 -2 -12 21 -6 22 -11 22 -97 0 -86 -1 -92
-22 -101 -18 -7 -11 -9 32 -9 35 -1 50 2 41 8 -8 5 -15 28 -16 52 -4 79 27
149 64 149 35 0 44 -17 46 -91 3 -86 -2 -106 -24 -112 -9 -3 11 -5 44 -5 45
-1 54 1 38 8 -21 9 -23 16 -23 89 0 103 -18 127 -93 122 -9 0 -26 -16 -38 -33
-15 -25 -20 -28 -18 -13 4 53 -1 58 -51 45z"/>
<path d="M4130 3399 c0 -5 6 -9 14 -9 18 0 33 -20 38 -50 3 -24 1 -25 -54 -27
-50 -1 -58 1 -58 16 0 10 11 30 25 45 17 19 20 26 9 26 -21 0 -64 -49 -65 -74
0 -12 -2 -29 -4 -40 -10 -50 59 -120 109 -110 29 5 66 26 66 36 0 5 -10 2 -22
-6 -49 -35 -104 -7 -115 57 l-6 37 74 -2 74 -2 -2 32 c0 18 -6 39 -13 46 -15
19 -70 38 -70 25z"/>
<path d="M4293 3402 c-21 -3 -21 -4 -4 -21 13 -13 17 -32 16 -81 -3 -102 -4
-108 -22 -113 -10 -3 7 -5 37 -6 42 0 51 2 38 10 -14 8 -18 23 -18 67 0 67 25
126 56 130 35 5 46 -21 45 -105 -1 -61 -4 -81 -18 -90 -14 -11 -8 -13 38 -12
30 1 47 3 38 6 -21 5 -28 31 -23 84 5 53 -12 116 -34 127 -27 14 -73 -1 -87
-28 l-14 -25 -1 31 c0 31 -4 33 -47 26z"/>
<path d="M4532 3402 c-25 -4 -56 -45 -49 -64 2 -7 8 -1 12 15 5 18 16 29 33
34 39 9 51 -16 49 -109 -1 -71 -3 -81 -21 -88 -15 -6 -3 -9 39 -9 46 0 55 2
38 9 -21 9 -23 16 -23 93 0 68 -3 87 -17 99 -25 21 -35 25 -61 20z"/>
<path d="M4770 3399 c0 -5 4 -8 9 -5 12 8 49 -25 52 -44 4 -37 -1 -41 -57 -39
-54 2 -55 3 -49 28 4 14 14 34 22 44 11 11 12 17 4 17 -18 0 -61 -50 -62 -74
-1 -12 -3 -31 -4 -43 -6 -54 49 -109 103 -105 32 2 72 22 72 34 0 5 -10 2 -22
-6 -49 -35 -104 -7 -115 57 l-6 37 77 0 c62 0 76 3 76 15 0 32 -30 73 -61 84
-39 13 -39 13 -39 0z"/>
<path d="M4930 3400 c0 -3 5 -11 11 -17 19 -19 19 -165 1 -185 -14 -17 -12
-18 34 -18 38 1 45 3 32 11 -21 12 -24 94 -5 149 14 41 56 62 81 40 24 -19 23
-175 -1 -189 -14 -8 -7 -10 32 -11 34 0 45 3 36 9 -10 7 -16 30 -17 73 -3 124
-2 118 -36 132 -31 13 -88 5 -88 -13 0 -4 -6 -15 -13 -26 -13 -16 -14 -15 -9
13 2 18 0 32 -4 33 -5 0 -19 2 -31 3 -13 2 -23 0 -23 -4z"/>
<path d="M5400 3396 c-57 -28 -46 -84 24 -118 25 -12 48 -28 50 -35 9 -21 -5
-43 -30 -49 -32 -8 -55 2 -61 26 -7 27 -21 25 -19 -2 3 -68 146 -45 146 23 0
23 -24 46 -66 64 -37 15 -58 52 -42 73 17 21 55 14 76 -15 l19 -26 -1 26 c-1
14 -4 28 -6 31 -12 11 -70 13 -90 2z"/>
<path d="M6068 3402 c-30 -4 -78 -46 -79 -71 0 -9 -2 -27 -4 -41 -6 -58 45
-113 106 -112 51 1 86 31 98 83 19 84 -39 151 -121 141z m69 -34 c18 -21 25
-96 13 -133 -20 -59 -93 -64 -119 -9 -16 36 -13 102 6 135 24 40 70 44 100 7z"/>
<path d="M6255 3400 c-16 -4 -23 -8 -14 -9 22 -1 26 -13 28 -101 3 -84 15
-105 62 -112 30 -5 69 15 69 34 0 6 -8 4 -18 -5 -20 -19 -40 -21 -60 -8 -17
11 -20 29 -21 129 -1 45 -4 81 -8 81 -5 -1 -21 -5 -38 -9z"/>
<path d="M6395 3399 c-16 -4 -22 -7 -12 -8 10 0 21 -11 26 -23 8 -23 6 -86 -4
-119 -4 -10 -2 -19 4 -19 6 0 8 -6 6 -12 -9 -24 11 -41 40 -34 25 6 26 8 10
19 -14 11 -17 30 -17 108 -1 101 0 100 -53 88z"/>
<path d="M6545 3400 c-16 -4 -23 -8 -14 -9 24 -1 29 -22 29 -112 0 -73 -2 -80
-22 -89 -18 -7 -12 -9 30 -9 49 -1 52 0 38 15 -12 12 -15 30 -12 72 4 62 -3
143 -13 141 -3 -1 -19 -5 -36 -9z"/>
<path d="M6640 3403 c-18 -6 -40 -33 -40 -47 0 -6 5 -3 11 7 9 15 18 17 45 12
26 -4 34 -2 34 8 0 12 -24 30 -33 26 -1 0 -9 -3 -17 -6z"/>
<path d="M6840 3400 c-25 -6 -25 -6 -2 -12 22 -6 22 -9 22 -155 0 -150 -3
-165 -30 -176 -8 -3 12 -5 45 -5 33 0 53 2 45 5 -24 9 -30 25 -30 81 0 47 2
52 18 44 9 -4 23 -7 30 -6 6 1 21 2 32 3 29 2 68 46 76 87 9 50 -10 107 -42
124 -35 20 -76 14 -96 -13 l-18 -22 0 21 c0 26 -16 33 -50 24z m154 -28 c21
-24 24 -97 7 -140 -16 -37 -50 -50 -88 -33 -25 11 -25 15 -20 76 2 36 12 76
21 90 20 30 56 33 80 7z"/>
<path d="M7169 3402 c-44 -5 -72 -44 -77 -106 -4 -51 -2 -57 26 -86 41 -41
102 -44 137 -7 l20 20 -27 -16 c-52 -32 -101 -15 -117 41 -13 42 -2 52 59 51
93 -1 91 -2 84 29 -8 32 -39 69 -62 74 -10 2 -29 2 -43 0z m61 -35 c0 -7 3
-22 6 -34 6 -22 4 -23 -50 -23 -52 0 -56 2 -56 23 0 24 22 50 50 59 19 7 50
-9 50 -25z"/>
<path d="M7350 3399 c-19 -4 -28 -7 -19 -8 24 -2 29 -22 29 -112 0 -73 -2 -80
-22 -89 -18 -7 -9 -9 37 -9 33 1 53 3 45 6 -8 3 -18 11 -22 16 -10 17 -2 130
11 155 11 20 18 23 47 17 26 -4 34 -2 34 8 0 35 -62 30 -82 -6 l-12 -22 -6 25
c-4 22 -9 24 -40 19z"/>
<path d="M7563 3399 c-66 -19 -64 -87 3 -115 43 -18 64 -37 64 -57 0 -42 -76
-49 -96 -9 -10 20 -12 21 -18 6 -10 -27 18 -48 64 -47 53 1 82 26 78 67 -3 26
-12 36 -56 59 -46 25 -53 32 -50 55 2 22 9 28 35 30 23 2 34 -2 42 -16 6 -11
7 -22 4 -26 -3 -3 -1 -6 5 -6 7 0 12 11 12 25 0 18 -7 28 -26 35 -14 6 -26 10
-27 9 -1 0 -17 -5 -34 -10z"/>
<path d="M7762 3395 c-21 -9 -38 -27 -47 -49 -19 -46 -19 -70 2 -113 35 -75
140 -77 178 -3 51 99 -35 206 -133 165z m85 -17 c23 -19 31 -64 24 -136 0 -7
-12 -24 -25 -37 -43 -43 -100 -8 -106 65 -5 57 1 82 25 106 25 25 52 26 82 2z"/>
<path d="M7975 3399 c-18 -6 -19 -7 -2 -14 14 -6 17 -21 17 -96 0 -84 -2 -90
-22 -99 -18 -7 -11 -9 32 -9 33 -1 50 3 42 8 -29 18 -17 145 16 184 22 25 61
22 71 -5 6 -18 8 -135 2 -170 0 -3 -9 -9 -18 -11 -10 -3 7 -5 37 -6 42 0 51 2
38 10 -15 8 -18 24 -18 88 0 61 -4 84 -17 99 -32 38 -84 33 -112 -10 -17 -25
-21 -28 -20 -13 4 53 -4 60 -46 44z"/>
<path d="M8292 3395 c-17 -8 -32 -21 -32 -30 0 -20 29 -20 37 1 3 9 15 19 26
23 11 4 16 10 11 13 -5 4 -24 0 -42 -7z"/>
<path d="M8350 3405 c0 -4 7 -13 15 -21 8 -9 15 -28 15 -43 0 -26 -4 -29 -42
-35 -24 -4 -53 -13 -64 -21 -29 -19 -36 -61 -14 -87 29 -36 109 -22 111 21 0
12 2 11 8 -4 5 -11 7 -23 4 -27 -6 -10 27 -9 52 2 17 7 17 9 3 9 -10 1 -19 9
-19 19 -1 9 -2 45 -4 79 -1 35 -8 70 -15 78 -15 18 -50 39 -50 30z m30 -127
c0 -33 -37 -88 -59 -88 -49 0 -52 68 -3 94 40 22 62 20 62 -6z"/>
<path d="M8965 3398 c-43 -12 -67 -50 -68 -109 0 -43 4 -55 30 -80 58 -58 151
-33 171 45 11 39 -1 94 -25 118 -26 25 -72 36 -108 26z m82 -30 c12 -14 17
-36 18 -80 0 -53 -3 -62 -27 -83 -24 -20 -32 -22 -57 -14 -34 12 -51 45 -51
100 0 93 64 135 117 77z"/>
<path d="M9160 3399 c-14 -4 -18 -7 -8 -8 19 -1 26 -29 28 -116 1 -70 20 -96
69 -97 25 -1 39 6 57 28 l25 29 -3 -25 c-4 -30 27 -39 57 -16 20 15 20 15 -2
9 -25 -6 -25 -8 -26 132 l0 70 -33 0 c-38 0 -41 -3 -18 -20 37 -26 12 -172
-32 -189 -21 -8 -54 2 -56 17 0 7 -2 17 -3 22 -2 6 -3 46 -4 91 -1 85 -2 87
-51 73z"/>
<path d="M9493 3397 c-38 -11 -63 -57 -63 -115 0 -70 60 -118 126 -100 32 8
67 38 45 38 -6 0 -11 -4 -11 -9 0 -5 -14 -12 -31 -16 -64 -14 -99 32 -92 120
5 70 67 105 101 58 11 -15 24 -23 30 -19 44 27 -42 62 -105 43z"/>
<path d="M9762 3399 c-11 -4 -25 -17 -31 -28 -18 -32 -13 -36 10 -7 43 55 82
25 84 -67 1 -81 -4 -105 -24 -110 -9 -3 9 -5 39 -5 30 0 47 2 38 5 -10 2 -18
12 -19 21 -5 173 -8 186 -53 194 -12 3 -32 1 -44 -3z"/>
<path d="M431 3393 c17 -4 33 -34 72 -133 39 -100 40 -107 20 -140 -18 -31
-21 -33 -63 -34 -32 -1 -42 -36 -10 -36 60 0 82 37 150 244 16 49 35 93 42 98
8 5 -2 8 -26 8 -34 0 -37 -2 -23 -12 16 -12 16 -18 -4 -90 -21 -78 -32 -93
-42 -60 -4 9 -13 35 -22 57 -25 67 -27 93 -8 98 10 3 -9 5 -42 5 -33 0 -53 -2
-44 -5z"/>
<path d="M3296 3384 c-18 -18 -20 -30 -7 -39 5 -3 19 8 31 25 17 24 18 30 6
30 -8 0 -22 -7 -30 -16z"/>
<path d="M5733 3393 c19 -5 50 -66 89 -174 20 -53 22 -68 12 -87 -18 -37 -32
-46 -67 -47 -38 0 -45 -28 -9 -33 48 -7 81 45 133 207 18 58 41 113 51 123 17
17 16 18 -24 18 -37 0 -40 -1 -24 -13 18 -13 17 -17 -7 -98 -14 -49 -27 -78
-31 -69 -3 8 -17 47 -31 85 -23 65 -23 71 -8 83 14 10 7 12 -43 11 -32 -1 -51
-3 -41 -6z"/>
<path d="M5546 3211 c-4 -6 3 -20 14 -31 21 -21 21 -23 4 -41 -9 -10 -12 -19
-7 -19 17 0 45 49 41 73 -3 23 -41 36 -52 18z"/>
</g>
</svg>
